# xmcd
#
# Track frame offsets: 
#        150
#        13893
#        26956
#        41453
#        55773
#        69121
#        83637
#        97277
#        111085
#        125194
#        138408
#        152299
#        166011
#        178977
#        192075
#        206058
#        218897
#        232197
#
# Disc length: 3268 seconds
#
# Revision: 0
# Processed by: cddbd v1.5.2PL0 Copyright (c) Steve Scherf et al.
# Submitted via: ExactAudioCopy v0.99pb4
#
DISCID=000cc212
DTITLE=AA.VV. - Irish Favourites CD 1
DYEAR=2005
DGENRE=Irish Music
TTITLE0=01 - Dan Sullivan's Shamrock Band - From Galway To Dublin
TTITLE1=02 - John Sheridan . Killamy/Believe Me If All Those Endearing
TTITLE1=Young Charms
TTITLE2=03 - The Flanagan Brothers - Paddy in London 
TTITLE3=04 - Peter 'PJ' Conlon - The banks of New Foundland
TTITLE4=05 - John McGettigan - Martha, The flowers of Sweet Strabane
TTITLE5=06 - Maurice McSweeney's Stars of Munster - Bank of Ireland/Wi
TTITLE5=nd That Shake The Barley
TTITLE6=07 - Packie Dolan - Erin's Green Shore
TTITLE7=08 - The Flanagan Brothers - The Night Pat Murphy Died
TTITLE8=09 - William J. Mullally - The Green Groves of Erin/The Ivy Le
TTITLE8=af
TTITLE9=10 - James Morrison - The Fisherman's Lilt/Colonel Fraser
TTITLE10=11 - Michael Gafney - The Night Cap/The Mysteries of Knock
TTITLE11=12 - Paddy Killoran - The Jolly Thinker/The Pretty Girl of Ma
TTITLE11=yo
TTITLE12=13 - Angela Murphy - The Dacent Irish Boy
TTITLE13=14 - Delia Murphy - The Bonny Girl's Lament
TTITLE14=15 - James 'Jimmy' Morrison - Farewell to Ireland
TTITLE15=16 - Michael O' Daffy - The Lark in The Clear Air
TTITLE16=17 - The Four Provinces Orchestra - Maggie pickens/Cameron's 
TTITLE16=Wife
TTITLE17=18 - Liam Walsh - The Faithfull Brown Cow
EXTD=
EXTT0=
EXTT1=
EXTT2=
EXTT3=
EXTT4=
EXTT5=
EXTT6=
EXTT7=
EXTT8=
EXTT9=
EXTT10=
EXTT11=
EXTT12=
EXTT13=
EXTT14=
EXTT15=
EXTT16=
EXTT17=
PLAYORDER=
